<svg xmlns="http://www.w3.org/2000/svg" viewBox="0 0 92.89 27.57"><defs><style>.cls-1{fill:#7cbb42;}.cls-2{fill:#06a5df;}.cls-3,.cls-4{fill:none;stroke-miterlimit:10;stroke-width:3px;}.cls-3{stroke:#0278ad;}.cls-4{stroke:#06a5df;}</style></defs><g id="Layer_2" data-name="Layer 2"><g id="Layer_1-2" data-name="Layer 1"><path class="cls-1" d="M.12,11.31C.12,9.6.09,8.13,0,6.78H2.31L2.4,9.63h.12a4.36,4.36,0,0,1,4-3.18,2.86,2.86,0,0,1,.75.09V9a4,4,0,0,0-.9-.09c-1.86,0-3.18,1.41-3.54,3.39a7.43,7.43,0,0,0-.12,1.23V21.3H.12Z"/><path class="cls-1" d="M11.1,14.52c.06,3.57,2.34,5,5,5a9.55,9.55,0,0,0,4-.75l.45,1.89a11.76,11.76,0,0,1-4.83.9c-4.47,0-7.14-2.94-7.14-7.32s2.58-7.83,6.81-7.83c4.74,0,6,4.17,6,6.84a10,10,0,0,1-.09,1.23Zm7.74-1.89c0-1.68-.69-4.29-3.66-4.29-2.67,0-3.84,2.46-4,4.29Z"/><path class="cls-2" d="M37.17,6.78c-.06,1-.12,2.22-.12,4V19.2c0,3.33-.66,5.37-2.07,6.63a7.7,7.7,0,0,1-5.28,1.74,9.37,9.37,0,0,1-4.83-1.2l.66-2a8.19,8.19,0,0,0,4.26,1.14c2.7,0,4.68-1.41,4.68-5.07V18.81h-.06a5.18,5.18,0,0,1-4.62,2.43c-3.6,0-6.18-3.06-6.18-7.08,0-4.92,3.21-7.71,6.54-7.71A4.83,4.83,0,0,1,34.68,9h.06l.12-2.19Zm-2.73,5.73a3.76,3.76,0,0,0-.15-1.2A3.8,3.8,0,0,0,30.6,8.52c-2.52,0-4.32,2.13-4.32,5.49,0,2.85,1.44,5.22,4.29,5.22a3.86,3.86,0,0,0,3.66-2.7,4.59,4.59,0,0,0,.21-1.41Z"/><path class="cls-3" d="M58.86,15.25s-3.66,7.2-9.2,7.2a7.2,7.2,0,1,1,0-14.4"/><path class="cls-3" d="M68.06,22.45a7.2,7.2,0,1,0,0-14.4c-5.88,0-9.45,7.66-9.45,7.66"/><path class="cls-3" d="M49.65,8.05a7.39,7.39,0,0,1,4.66,1.77"/><path class="cls-3" d="M68.14,22.45a7.32,7.32,0,0,1-4.66-1.76"/><path class="cls-4" d="M58.05,14.37s-3.66,7.2-9.2,7.2a7.2,7.2,0,0,1,0-14.4"/><path class="cls-4" d="M67.25,21.57a7.2,7.2,0,1,0,0-14.4c-5.88,0-9.45,7.66-9.45,7.66"/><path class="cls-4" d="M48.6,7.17a7.33,7.33,0,0,1,4.66,1.77"/><path class="cls-4" d="M67.33,21.57a7.39,7.39,0,0,1-3.26-.82"/><polygon class="cls-2" points="56.58 12.09 53.83 4.91 48.99 10.88 56.58 12.09"/><polygon class="cls-2" points="60.55 17.47 63.3 24.65 68.14 18.67 60.55 17.47"/><path class="cls-2" d="M92.77,0V17.55c0,1.29,0,2.76.12,3.75H90.52l-.12-2.52h-.07a5.34,5.34,0,0,1-4.94,2.85c-3.51,0-6.21-3-6.21-7.38,0-4.83,3-7.8,6.51-7.8a4.85,4.85,0,0,1,4.38,2.22h.05V0ZM90.12,12.69A4.65,4.65,0,0,0,90,11.58,3.88,3.88,0,0,0,86.2,8.52c-2.73,0-4.35,2.4-4.35,5.61,0,2.94,1.44,5.37,4.29,5.37A4,4,0,0,0,90,16.35a4.6,4.6,0,0,0,.11-1.14Z"/></g></g></svg>